<svg xmlns="http://www.w3.org/2000/svg" width="13" height="15" viewBox="0 0 13 15">
  <path id="Path_236" data-name="Path 236" d="M161.313-834.23a1.263,1.263,0,0,1-.937-.38,1.3,1.3,0,0,1-.376-.949v-10.506a1.3,1.3,0,0,1,.376-.949,1.263,1.263,0,0,1,.937-.381h1.437v-1.392a.433.433,0,0,1,.124-.317.422.422,0,0,1,.313-.126.422.422,0,0,1,.313.126.434.434,0,0,1,.124.317v1.392h5.813v-1.424a.4.4,0,0,1,.116-.294.391.391,0,0,1,.29-.118.391.391,0,0,1,.29.118.4.4,0,0,1,.117.294v1.424h1.437a1.263,1.263,0,0,1,.937.381,1.3,1.3,0,0,1,.376.949v10.506a1.3,1.3,0,0,1-.376.949,1.263,1.263,0,0,1-.937.38Zm0-.823h10.375a.475.475,0,0,0,.344-.158.487.487,0,0,0,.156-.348v-7.215H160.813v7.215a.487.487,0,0,0,.156.348A.475.475,0,0,0,161.313-835.053Zm5.187-4.81a.6.6,0,0,1-.438-.189.611.611,0,0,1-.187-.444.611.611,0,0,1,.187-.444.6.6,0,0,1,.438-.189.6.6,0,0,1,.438.189.611.611,0,0,1,.187.444.611.611,0,0,1-.187.444A.6.6,0,0,1,166.5-839.863Zm-3.25,0a.6.6,0,0,1-.438-.189.611.611,0,0,1-.187-.444.611.611,0,0,1,.187-.444.6.6,0,0,1,.438-.189.6.6,0,0,1,.438.189.611.611,0,0,1,.187.444.611.611,0,0,1-.187.444A.6.6,0,0,1,163.25-839.863Zm6.5,0a.6.6,0,0,1-.438-.189.611.611,0,0,1-.187-.444.611.611,0,0,1,.187-.444.6.6,0,0,1,.438-.189.6.6,0,0,1,.438.189.611.611,0,0,1,.187.444.611.611,0,0,1-.187.444A.6.6,0,0,1,169.75-839.863ZM166.5-836.7a.6.6,0,0,1-.438-.189.611.611,0,0,1-.187-.444.612.612,0,0,1,.187-.444.6.6,0,0,1,.438-.189.6.6,0,0,1,.438.189.612.612,0,0,1,.187.444.611.611,0,0,1-.187.444A.6.6,0,0,1,166.5-836.7Zm-3.25,0a.6.6,0,0,1-.438-.189.611.611,0,0,1-.187-.444.612.612,0,0,1,.187-.444.6.6,0,0,1,.438-.189.6.6,0,0,1,.438.189.612.612,0,0,1,.187.444.611.611,0,0,1-.187.444A.6.6,0,0,1,163.25-836.7Zm6.5,0a.6.6,0,0,1-.438-.189.611.611,0,0,1-.187-.444.612.612,0,0,1,.187-.444.6.6,0,0,1,.438-.189.6.6,0,0,1,.438.189.612.612,0,0,1,.187.444.611.611,0,0,1-.187.444A.6.6,0,0,1,169.75-836.7Z" transform="translate(-160 849.23)" fill="#444346"/>
</svg>
