<svg xmlns="http://www.w3.org/2000/svg" width="15" height="15" viewBox="0 0 15 15">
  <path id="Path_237" data-name="Path 237" d="M127.917-832.673v-3.577a.4.4,0,0,0-.12-.3.4.4,0,0,0-.3-.12.4.4,0,0,0-.3.12.4.4,0,0,0-.119.3v3.649a.679.679,0,0,0,.046.247.668.668,0,0,0,.155.229l2.958,2.958a.419.419,0,0,0,.287.125.39.39,0,0,0,.3-.125.409.409,0,0,0,.133-.295.409.409,0,0,0-.133-.295ZM127.5-825a7.31,7.31,0,0,1-2.925-.59,7.58,7.58,0,0,1-2.382-1.6,7.568,7.568,0,0,1-1.6-2.38A7.294,7.294,0,0,1,120-832.5a7.31,7.31,0,0,1,.59-2.925,7.58,7.58,0,0,1,1.6-2.383,7.567,7.567,0,0,1,2.38-1.6A7.293,7.293,0,0,1,127.5-840a7.31,7.31,0,0,1,2.925.59,7.58,7.58,0,0,1,2.382,1.6,7.567,7.567,0,0,1,1.6,2.38A7.293,7.293,0,0,1,135-832.5a7.31,7.31,0,0,1-.59,2.925,7.58,7.58,0,0,1-1.6,2.383,7.567,7.567,0,0,1-2.38,1.6A7.293,7.293,0,0,1,127.5-825Z" transform="translate(-120 840)" fill="#444346"/>
</svg>
