<svg xmlns="http://www.w3.org/2000/svg" width="20" height="20" viewBox="0 0 20 20">
  <path id="Path_87587" data-name="Path 87587" d="M170-785.531a1.384,1.384,0,0,1-.469-.078,1.1,1.1,0,0,1-.406-.266l-4.5-4.5a1.145,1.145,0,0,1-.359-.875,1.318,1.318,0,0,1,.359-.875,1.275,1.275,0,0,1,.891-.391,1.163,1.163,0,0,1,.891.359l2.344,2.344v-8.937a1.209,1.209,0,0,1,.359-.891A1.21,1.21,0,0,1,170-800a1.21,1.21,0,0,1,.891.359,1.209,1.209,0,0,1,.359.891v8.938l2.344-2.344a1.163,1.163,0,0,1,.891-.359,1.275,1.275,0,0,1,.891.391,1.318,1.318,0,0,1,.359.875,1.145,1.145,0,0,1-.359.875l-4.5,4.5a1.1,1.1,0,0,1-.406.266A1.384,1.384,0,0,1,170-785.531ZM162.5-780a2.407,2.407,0,0,1-1.766-.734A2.407,2.407,0,0,1,160-782.5V-785a1.209,1.209,0,0,1,.359-.891,1.21,1.21,0,0,1,.891-.359,1.21,1.21,0,0,1,.891.359,1.209,1.209,0,0,1,.359.891v2.5h15V-785a1.209,1.209,0,0,1,.359-.891,1.21,1.21,0,0,1,.891-.359,1.21,1.21,0,0,1,.891.359A1.209,1.209,0,0,1,180-785v2.5a2.407,2.407,0,0,1-.734,1.766A2.407,2.407,0,0,1,177.5-780Z" transform="translate(-160 800)" fill="#444346"/>
</svg>
