<svg xmlns="http://www.w3.org/2000/svg" width="17" height="20" viewBox="0 0 17 20">
  <path id="ic_accessibility" d="M154.58-867.761a1.808,1.808,0,0,1-1.331-.552,1.827,1.827,0,0,1-.549-1.338,1.826,1.826,0,0,1,.549-1.338,1.807,1.807,0,0,1,1.331-.552,1.807,1.807,0,0,1,1.331.552,1.826,1.826,0,0,1,.549,1.338,1.827,1.827,0,0,1-.549,1.338A1.808,1.808,0,0,1,154.58-867.761Zm-2.643,15.453v-12.579q-1.336-.112-2.642-.291t-2.529-.461a.931.931,0,0,1-.543-.368.664.664,0,0,1-.111-.612.752.752,0,0,1,.407-.487.96.96,0,0,1,.66-.068,30.73,30.73,0,0,0,3.65.573q1.858.179,3.752.179t3.752-.179a30.731,30.731,0,0,0,3.65-.573.96.96,0,0,1,.66.068.752.752,0,0,1,.407.487.664.664,0,0,1-.111.612.931.931,0,0,1-.543.368q-1.222.282-2.529.461t-2.642.291v12.579a.745.745,0,0,1-.219.547.737.737,0,0,1-.544.221.737.737,0,0,1-.544-.221.745.745,0,0,1-.219-.547V-857.8h-2.232v5.492a.745.745,0,0,1-.219.547.737.737,0,0,1-.544.221.737.737,0,0,1-.544-.221A.745.745,0,0,1,151.937-852.308Z" transform="translate(-146.08 871.54)" fill="#29282a"/>
</svg>
