<svg xmlns="http://www.w3.org/2000/svg" width="15" height="8" viewBox="0 0 15 8">
  <path id="ic_copy_link" d="M86.75-672h-3a3.5,3.5,0,0,1-2.653-1.17A3.989,3.989,0,0,1,80-676a3.989,3.989,0,0,1,1.1-2.83A3.5,3.5,0,0,1,83.75-680h3v1.6h-3a2.1,2.1,0,0,0-1.594.7A2.4,2.4,0,0,0,81.5-676a2.4,2.4,0,0,0,.656,1.7,2.1,2.1,0,0,0,1.594.7h3Zm-2.25-3.2v-1.6h6v1.6Zm3.75,3.2v-1.6h3a2.1,2.1,0,0,0,1.594-.7A2.4,2.4,0,0,0,93.5-676a2.4,2.4,0,0,0-.656-1.7,2.1,2.1,0,0,0-1.594-.7h-3V-680h3a3.5,3.5,0,0,1,2.653,1.17A3.989,3.989,0,0,1,95-676a3.989,3.989,0,0,1-1.1,2.83A3.5,3.5,0,0,1,91.25-672Z" transform="translate(-80 680)" fill="#444346"/>
</svg>
