<svg xmlns="http://www.w3.org/2000/svg" width="15" height="15" viewBox="0 0 15 15">
  <path id="ic_instagram" d="M6.93,3.225h6.338A4.328,4.328,0,0,1,17.6,7.556v6.337a4.328,4.328,0,0,1-4.331,4.331H6.93A4.328,4.328,0,0,1,2.6,13.894V7.556A4.328,4.328,0,0,1,6.93,3.225ZM6.789,4.706A2.705,2.705,0,0,0,4.078,7.415v6.619a2.705,2.705,0,0,0,2.711,2.711h6.619a2.705,2.705,0,0,0,2.711-2.711V7.414A2.705,2.705,0,0,0,13.41,4.706Zm7.253,1.125a1.023,1.023,0,0,1,.652.3.916.916,0,1,1-1.3,0,1.023,1.023,0,0,1,.652-.3ZM10.1,6.956a3.787,3.787,0,1,1-2.659,1.11A3.735,3.735,0,0,1,10.1,6.956Zm0,1.514a2.276,2.276,0,0,0-1.585.669,2.149,2.149,0,0,0-.634,1.585A2.166,2.166,0,0,0,10.1,12.943a2.166,2.166,0,0,0,2.218-2.219,2.15,2.15,0,0,0-.634-1.585A2.276,2.276,0,0,0,10.1,8.471Z" transform="translate(-2.6 -3.225)" fill="#444346"/>
</svg>
