<svg xmlns="http://www.w3.org/2000/svg" width="50" height="60" viewBox="0 0 50 60">
  <path id="ic_play" d="M311.87-682.35V-731.73a4.985,4.985,0,0,1,1.614-3.8,5.335,5.335,0,0,1,3.759-1.509,5.809,5.809,0,0,1,1.423.189,5.263,5.263,0,0,1,1.424.594l39.344,24.719a5.147,5.147,0,0,1,1.821,1.988,5.445,5.445,0,0,1,.615,2.51,5.445,5.445,0,0,1-.615,2.51,5.147,5.147,0,0,1-1.821,1.988L320.09-677.823a5.263,5.263,0,0,1-1.424.594,5.8,5.8,0,0,1-1.423.189,5.335,5.335,0,0,1-3.759-1.509A4.985,4.985,0,0,1,311.87-682.35Z" transform="translate(-311.87 737.04)" fill="#fff"/>
</svg>
