<svg xmlns="http://www.w3.org/2000/svg" width="15" height="13" viewBox="0 0 15 13">
  <path id="Path_235" data-name="Path 235" d="M16.089,4.38,2.746,9.691c-.9.337-.9.927-.164,1.1l3.356,1.1,1.31,4.046c.164.422.082.59.491.59a.843.843,0,0,0,.655-.337L10.031,14.5,13.47,17.11c.655.337,1.064.169,1.228-.59L16.99,5.476C17.236,4.549,16.662,4.043,16.089,4.38ZM14.37,6.91,7.985,12.895l-.246,2.782L6.429,11.63l7.532-4.89C14.288,6.488,14.616,6.657,14.37,6.91Z" transform="translate(-2.048 -4.276)" fill="#444346"/>
</svg>
