<svg xmlns="http://www.w3.org/2000/svg" width="15" height="15" viewBox="0 0 15 15">
  <path id="linkedin-icon" d="M17,3H13.68V-2.625a1.549,1.549,0,0,0-.605-1.133,1.941,1.941,0,0,0-1.27-.469,1.289,1.289,0,0,0-1.074.469,1.962,1.962,0,0,0-.41,1.133V3H7V-7h3.32v1.68a3.082,3.082,0,0,1,1.328-1.094,3.892,3.892,0,0,1,1.6-.391,3.7,3.7,0,0,1,2.656,1.113A3.761,3.761,0,0,1,17-3.055ZM5.32,3H2V-7H5.32ZM3.68-12a1.557,1.557,0,0,1,1.172.488A1.656,1.656,0,0,1,5.32-10.32a1.59,1.59,0,0,1-.469,1.172A1.59,1.59,0,0,1,3.68-8.68a1.656,1.656,0,0,1-1.191-.469A1.557,1.557,0,0,1,2-10.32a1.621,1.621,0,0,1,.488-1.191A1.621,1.621,0,0,1,3.68-12Z" transform="translate(-2 12)" fill="#444346"/>
</svg>
