<svg xmlns="http://www.w3.org/2000/svg" width="15" height="10" viewBox="0 0 15 10">
  <path id="youtube" d="M15.988,7.783a5.262,5.262,0,0,0-.62-2.67A2.015,2.015,0,0,0,14.2,4.466a56.264,56.264,0,0,0-5.7-.2A56.325,56.325,0,0,0,2.81,4.46a2,2,0,0,0-.995.478,3.223,3.223,0,0,0-.75,2.23,29.62,29.62,0,0,0,0,4.189,5.881,5.881,0,0,0,.2,1.293,2,2,0,0,0,.484.879,1.985,1.985,0,0,0,1.015.5,32.431,32.431,0,0,0,4.429.213c2.385.032,4.477,0,6.95-.181a2,2,0,0,0,1.043-.5,1.6,1.6,0,0,0,.416-.646,6.518,6.518,0,0,0,.354-2.2C15.988,10.356,15.988,8.171,15.988,7.783ZM6.953,11.105v-4l4.034,2.01C9.855,9.709,8.363,10.381,6.953,11.105Z" transform="translate(-0.991 -4.258)" fill="#444346"/>
</svg>
